<?xml version="1.0" standalone="no"?>
<!DOCTYPE svg PUBLIC "-//W3C//DTD SVG 20010904//EN"
 "http://www.w3.org/TR/2001/REC-SVG-20010904/DTD/svg10.dtd">
<svg version="1.0" xmlns="http://www.w3.org/2000/svg"
 width="700.000000pt" height="700.000000pt" viewBox="0 0 700.000000 700.000000"
 preserveAspectRatio="xMidYMid meet">
<metadata>
Created by potrace 1.11, written by Peter Selinger 2001-2013
</metadata>
<g transform="translate(0.000000,700.000000) scale(0.100000,-0.100000)"
fill="#000000" stroke="none">
<path d="M3275 6614 c-435 -36 -827 -147 -1210 -342 -160 -82 -387 -228 -525
-338 -110 -87 -397 -374 -484 -484 -300 -376 -528 -862 -621 -1325 -48 -239
-59 -354 -59 -630 0 -276 11 -391 59 -630 93 -463 321 -949 621 -1325 87 -110
374 -397 484 -484 376 -300 862 -528 1325 -621 239 -48 354 -59 630 -59 276 0
391 11 630 59 463 93 949 321 1325 621 110 87 397 374 484 484 300 376 528
862 621 1325 48 239 59 354 59 630 0 276 -11 391 -59 630 -93 463 -321 949
-621 1325 -87 110 -374 397 -484 484 -138 110 -365 256 -525 338 -335 170
-660 272 -1035 323 -111 15 -511 27 -615 19z"/>
</g>
</svg>
